<?xml version="1.0" encoding="utf-8"?>
<!-- Generator: Adobe Illustrator 21.0.2, SVG Export Plug-In . SVG Version: 6.00 Build 0)  -->
<svg version="1.1" id="Layer_1" xmlns="http://www.w3.org/2000/svg" xmlns:xlink="http://www.w3.org/1999/xlink" x="0px" y="0px"
	 viewBox="0 0 1000 365.6" style="enable-background:new 0 0 1000 365.6;" xml:space="preserve">
<style type="text/css">
	.st0{fill:#FFFFFF;}
</style>
<path class="st0" d="M138.5,349c-18.1,6-40.4,8.9-66.9,8.9C27.2,357.9,5,332.1,5,280.4c0-47.7,23.6-71.6,70.7-71.6
	c12.9,0,25,2.4,36.5,7.1v-61.1h26.3V349z M112.2,239.2c-10.6-5.1-22.7-7.7-36.4-7.7c-30,0-45,16-45,47.9c0,37.8,15,56.7,45,56.7
	c13.6,0,25.8-1.8,36.4-5.5V239.2z"/>
<path class="st0" d="M287.8,208.8v149.1h-18l-4.5-19c-18.1,12.7-36.3,19-54.5,19c-34.3,0-51.4-18.5-51.4-55.5v-93.6h26.3v94
	c0,22.2,11,33.2,32.9,33.2c15.1,0,29.4-6.3,43-18.9V208.8H287.8z"/>
<path class="st0" d="M301.5,312.9c0-30.6,20.2-45.9,60.5-45.9c13,0,25.9,1,38.9,2.8v-14.1c0-17.1-13.4-25.7-40.2-25.7
	c-15.3,0-31,2.4-47.1,7.1v-21.3c16.1-4.7,31.8-7.1,47.1-7.1c44.3,0,66.5,15.4,66.5,46.3v102.8h-14.8l-9.1-14.8
	c-14.9,9.9-31,14.8-48.6,14.8C319.3,357.9,301.5,342.9,301.5,312.9z M362,288.3c-22.8,0-34.2,8.1-34.2,24.1c0,16.1,9,24.1,27,24.1
	c18.2,0,33.6-4.8,46.2-14.5v-31C388,289.3,375,288.3,362,288.3z"/>
<path class="st0" d="M475.7,154.8v203.1h-26.3V154.8H475.7z"/>
<path class="st0" d="M497.9,184.7h16.5l5.7,24.1h40.4v21.3h-36.2v85.6c0,13.9,6,20.9,18,20.9h18.2v21.3h-25
	c-25,0-37.5-13.4-37.5-40.2V184.7z"/>
<path class="st0" d="M564.9,283.4c0-49.7,23.7-74.6,71-74.6c47.3,0,71,24.9,71,74.6c0,49.6-23.7,74.4-71,74.4
	C588.7,357.8,565,333,564.9,283.4z M635.9,336.6c29.8,0,44.7-17.9,44.7-53.8c0-35.1-14.9-52.7-44.7-52.7
	c-29.8,0-44.7,17.6-44.7,52.7C591.1,318.7,606,336.6,635.9,336.6z"/>
<path class="st0" d="M720.5,357.9V208.8h17.8l4.7,19c15.2-12.7,32-19,50.3-19c37.2,0,55.8,18.5,55.8,55.5v93.6h-26.3v-94
	c0-22.1-11-33.2-33.1-33.2c-15.1,0-29.4,6.3-42.9,18.9v108.4H720.5z"/>
<path class="st0" d="M931.4,208.8c42.4,0,63.6,21,63.6,62.9c0,6-0.4,12.4-1.3,19.2H889c0,30.5,17.8,45.7,53.4,45.7
	c17,0,32-1.9,45.2-5.7v21.3c-13.2,3.8-29.2,5.7-48,5.7c-51.2,0-76.8-25.4-76.8-76.3C862.8,233.1,885.6,208.8,931.4,208.8z M889,269
	h80.7c-0.6-26.1-13.4-39.2-38.3-39.2C904.9,229.8,890.7,242.9,889,269z"/>
<path class="st0" d="M564.8,155.4c0,0,0.5-0.2,1.5-0.5c1-0.3,2.5-0.8,4.5-1.5c3.9-1.3,9.7-3.4,17-6.5c7.2-3.1,15.9-7.3,25-13.5
	c4.5-3.1,9.1-6.8,13.1-11.2c4.1-4.4,7.6-9.7,9.4-15.6c0.8-3,1.3-6.1,1.1-9.2c0-1.6-0.3-3.2-0.6-4.7c-0.2-0.8-0.4-1.6-0.6-2.4
	c-0.1-0.4-0.2-0.8-0.3-1.2l-0.5-1.2c-2.4-6.3-6.9-12.2-12.4-17.6c-5.5-5.4-12.2-10.2-19.4-14.6c-7.3-4.4-15.2-8.3-23.5-11.8
	c-16.7-7-35.1-12.5-54.6-16.5c-19.5-4.1-40-6.5-61.1-7.5c-21.1-1-41.8-0.3-61.5,2c-19.7,2.3-38.6,6.1-55.7,11.9
	c-8.6,2.9-16.7,6.2-24.1,10.1c-1.9,0.9-3.6,2-5.4,3c-1.8,1-3.5,2.2-5.2,3.3c-3.3,2.3-6.5,4.7-9.2,7.3c-1.5,1.2-2.6,2.7-3.9,4
	c-0.6,0.7-1.1,1.4-1.7,2.1l-0.9,1.1l-0.7,1.1c-2.1,2.9-3.5,6-4.5,9.1c-0.2,0.8-0.4,1.6-0.7,2.3c-0.1,0.8-0.2,1.6-0.4,2.4
	c-0.3,1.6-0.3,3.2-0.2,4.7c0.2,3.2,0.9,6.3,2,9.2c2.2,5.9,5.9,11.2,10,15.7c4,4.5,8.5,8.4,12.9,11.8c8.8,6.7,17.2,11.5,24.1,15.1
	c7,3.6,12.6,6.1,16.5,7.8c3.8,1.6,5.9,2.5,5.9,2.5s-0.5-0.1-1.6-0.4c-1-0.3-2.6-0.7-4.6-1.3c-4-1.2-9.9-3.1-17.4-6
	c-7.4-2.9-16.4-6.9-26.2-13c-4.9-3.1-9.9-6.7-14.8-11.3c-4.9-4.6-9.6-10.2-13-17.3c-1.7-3.6-2.9-7.5-3.5-11.8
	c-0.2-2.1-0.4-4.3-0.2-6.5c0.1-1.1,0.2-2.2,0.3-3.3c0.2-1.1,0.4-2.2,0.6-3.3c1.1-4.3,2.7-8.6,5.1-12.4l0.8-1.5l1-1.4
	c0.6-0.9,1.3-1.9,2-2.8c1.4-1.7,2.8-3.6,4.4-5.1c6.2-6.6,13.6-12.2,21.7-16.9c8-4.8,16.7-8.8,25.7-12.3c18.1-7,37.9-11.7,58.6-14.6
	c20.7-2.9,42.4-3.9,64.4-2.8c22.1,1,43.6,3.9,63.9,8.6c20.4,4.7,39.6,11.1,57.1,19.4c8.7,4.2,17,8.8,24.7,14
	c7.6,5.2,14.8,11,20.8,17.6c0.7,0.8,1.5,1.7,2.2,2.5c0.7,0.8,1.4,1.8,2.1,2.6c1.4,1.7,2.6,3.6,3.8,5.4c2.3,3.8,4.3,7.7,5.5,12
	l0.5,1.6c0.1,0.5,0.2,1.1,0.4,1.6c0.2,1.1,0.5,2.1,0.6,3.2c0.2,2.2,0.5,4.3,0.3,6.4c0,4.3-1,8.4-2.4,12.1
	c-2.9,7.5-7.7,13.3-12.6,17.9c-5,4.6-10.2,8-15.2,10.9c-10.1,5.6-19.4,9-27,11.4c-7.7,2.4-13.7,3.8-17.7,4.6
	c-2.1,0.5-3.6,0.7-4.7,0.9C565.4,155.3,564.8,155.4,564.8,155.4z"/>
<path class="st0" d="M539,155c0,0,1.5-0.5,4.5-1.6c2.9-1,7.2-2.7,12.6-5c5.3-2.4,11.8-5.7,18.4-10.3c3.2-2.4,6.6-5.1,9.6-8.4
	c2.9-3.3,5.4-7.1,6.7-11.4c1.2-4.2,1.1-8.8-0.7-13.1c-0.2-0.5-0.5-1.1-0.7-1.6c-0.3-0.5-0.6-1.1-0.9-1.6c-0.3-0.5-0.6-1.1-1-1.6
	c-0.4-0.5-0.7-1.1-1.1-1.6c-0.8-1-1.6-2.1-2.6-3c-0.5-0.5-0.9-1-1.4-1.5l-1.5-1.4c-4.1-3.8-9.1-7.1-14.5-10.1
	c-5.4-3-11.4-5.7-17.6-8.1c-12.5-4.8-26.3-8.4-40.7-11.1c-14.5-2.7-29.8-4.4-45.4-5.1c-15.7-0.8-31-0.4-45.7,1
	c-14.7,1.4-28.7,3.8-41.4,7.6c-6.4,1.9-12.4,4.1-18,6.8c-5.6,2.6-10.6,5.8-14.7,9.4l-0.8,0.7l-0.7,0.7l-1.4,1.4
	c-0.8,1-1.7,1.9-2.4,3c-0.8,1-1.3,2.1-1.9,3.1c-0.3,0.5-0.5,1.1-0.7,1.6c-0.1,0.3-0.3,0.5-0.3,0.8l-0.2,0.8
	c-1.4,4.3-1.1,8.9,0.5,13.2c1.6,4.3,4.2,8.1,7.2,11.5c3,3.4,6.2,6.3,9.4,8.8c6.4,5,12.6,8.7,17.8,11.5c5.2,2.8,9.3,4.8,12.2,6
	c2.8,1.3,4.3,1.9,4.3,1.9s-1.6-0.4-4.6-1.2c-3-0.8-7.5-2.1-13-4.2c-5.6-2.1-12.4-5-19.8-9.4c-3.7-2.2-7.5-4.9-11.3-8.3
	c-3.7-3.4-7.4-7.6-10.1-13c-1.3-2.7-2.4-5.7-2.9-9c-0.5-3.3-0.4-6.8,0.3-10.2l0.3-1.3c0.1-0.4,0.3-0.8,0.4-1.3
	c0.3-0.8,0.5-1.7,0.8-2.5c0.7-1.6,1.4-3.2,2.3-4.7c0.9-1.6,1.9-2.9,2.9-4.4c0.5-0.7,1.1-1.3,1.7-2l0.9-1l0.9-0.9
	c4.9-5.1,10.6-9.2,16.8-12.7c6.2-3.5,12.8-6.4,19.6-8.9c13.8-5,28.7-8.3,44.3-10.2c15.6-2,31.8-2.6,48.3-1.8
	c23.9,1.1,25.9,1.4,47.9,6.2c15.3,3.4,29.9,7.9,43.2,13.9c6.6,3,13,6.4,18.9,10.2c5.9,3.9,11.4,8.1,16,13.2c0.6,0.6,1.1,1.3,1.7,1.9
	c0.6,0.6,1.1,1.3,1.6,2c1.1,1.3,2,2.8,3,4.2c0.5,0.7,0.9,1.5,1.3,2.2c0.4,0.7,0.8,1.5,1.1,2.3c0.3,0.8,0.7,1.6,1,2.4
	c0.3,0.8,0.5,1.6,0.8,2.5c2,6.6,1.5,13.7-0.9,19.4c-2.4,5.7-6.2,10.1-10,13.5c-3.9,3.4-7.9,5.9-11.7,8c-7.7,4.1-14.7,6.5-20.4,8.2
	c-5.8,1.6-10.3,2.6-13.3,3.2C540.6,154.7,539,155,539,155z"/>
<path class="st0" d="M513.8,150.5c0,0,1-0.4,2.9-1.2c1.9-0.8,4.7-2,8.2-3.6c3.4-1.7,7.6-4,11.8-7.2c2.1-1.6,4.2-3.4,6-5.6
	c1.8-2.1,3.3-4.6,4-7.1c0.1-0.3,0.2-0.6,0.2-0.9l0.2-1c0.1-0.6,0-1.3,0.1-1.9c-0.1-1.3-0.4-2.5-0.9-3.7c-0.6-1.2-1.3-2.4-2.2-3.5
	c-1-1.1-2.1-2.3-3.5-3.3c-2.6-2.1-6-4-9.5-5.6c-3.6-1.6-7.5-3.1-11.7-4.3c-8.3-2.5-17.4-4.3-26.9-5.7c-9.5-1.4-19.6-2.3-29.9-2.8
	c-10.3-0.5-20.3-0.5-30,0c-9.6,0.5-18.8,1.5-27.2,3.4c-4.2,0.9-8.2,2.1-11.8,3.5c-3.6,1.4-6.9,3.1-9.5,5c-2.6,2-4.3,4.2-5.1,6.6
	c-0.8,2.4-0.6,5.1,0.3,7.7c0.9,2.6,2.5,5.1,4.3,7.3c1.9,2.2,3.9,4.2,5.9,5.8c4.1,3.4,8.1,6,11.4,7.9c1.7,1,3.2,1.8,4.5,2.5
	c1.3,0.7,2.5,1.3,3.4,1.8c1.8,0.9,2.8,1.4,2.8,1.4s-1.1-0.2-3.1-0.7c-1-0.2-2.3-0.5-3.7-1c-1.5-0.4-3.1-0.9-5-1.5
	c-3.8-1.3-8.4-3-13.4-5.8c-2.6-1.4-5.2-3.2-7.8-5.3c-2.6-2.3-5.2-5-7.3-8.7c-2-3.7-3.3-8.5-2.5-13.6c0.8-5.1,3.7-9.8,7.2-13.3
	c3.5-3.5,7.6-6.2,11.9-8.5c4.3-2.2,8.9-4,13.6-5.5c9.4-3,19.4-4.8,29.8-5.8c10.4-1,21.2-1.3,32.1-0.8c11,0.5,21.6,1.8,31.9,3.7
	c10.2,2,20,4.7,29.1,8.4c4.6,1.8,8.9,3.9,13,6.4c4.1,2.5,8,5.2,11.4,8.7c1.7,1.7,3.2,3.7,4.6,5.7c1.3,2.1,2.3,4.4,3,6.8
	c0.6,2.4,0.8,5,0.6,7.3c-0.2,1.2-0.4,2.3-0.7,3.4c-0.4,1.1-0.6,2.2-1.2,3.1c-1.9,4-4.6,6.8-7.3,9.1c-2.7,2.3-5.5,3.8-8.1,5.2
	c-5.3,2.6-10,4-13.8,5c-3.9,0.9-6.9,1.5-8.9,1.8C514.9,150.4,513.8,150.5,513.8,150.5z"/>
</svg>
