<svg xmlns="http://www.w3.org/2000/svg" viewBox="226 4078.111 285.006 89.466">
  <defs>
    <style>
      .cls-1 {
        fill: #45b172;
      }

      .cls-2 {
        fill: #010202;
      }
    </style>
  </defs>
  <g id="Group_6988" data-name="Group 6988" transform="translate(226.089 4078.1)">
    <g id="Group_6986" data-name="Group 6986" transform="translate(-0.089 0.011)">
      <path id="Path_122" data-name="Path 122" class="cls-1" d="M44.847,89.477a7.135,7.135,0,0,1-2.388-.421,10.913,10.913,0,0,1-3.512-2.107L2.424,50.426A7.377,7.377,0,0,1,.317,42.559a10.913,10.913,0,0,1,2.107-3.512L38.947,2.524A7.377,7.377,0,0,1,46.814.417a10.913,10.913,0,0,1,3.512,2.107L86.849,39.047a7.377,7.377,0,0,1,2.107,7.867,10.913,10.913,0,0,1-2.107,3.512L50.326,86.949a7.2,7.2,0,0,1-5.478,2.529m-.14-86.251a5.137,5.137,0,0,0-3.371,1.545L4.812,41.295a4.632,4.632,0,0,0,0,6.883L41.335,84.7a4.632,4.632,0,0,0,6.883,0L84.742,48.178a4.632,4.632,0,0,0,0-6.883L48.218,4.772a5.459,5.459,0,0,0-3.512-1.545" transform="translate(0.089 -0.011)"/>
      <path id="Path_123" data-name="Path 123" class="cls-1" d="M68.073,37.93,42.085,11.943a3.243,3.243,0,0,0-.983-.7c-.14,0-.14-.14-.281-.14h-.14a4.288,4.288,0,0,0-1.264.7L13.288,37.93a3.113,3.113,0,0,0,0,4.5L39.275,68.554a3.243,3.243,0,0,0,.983.7c.14,0,.14.14.281.14h.14a4.288,4.288,0,0,0,1.264-.7L68.073,42.566a3.258,3.258,0,0,0,0-4.636M41.242,17.7a4.776,4.776,0,1,1-4.776,4.776A4.737,4.737,0,0,1,41.242,17.7m-8.85,8.99a4.776,4.776,0,1,1-4.776,4.776,4.737,4.737,0,0,1,4.776-4.776m-9.131,18.4a4.776,4.776,0,1,1,4.776-4.776,4.827,4.827,0,0,1-4.776,4.776M32.392,53.8a4.776,4.776,0,1,1,4.776-4.776A4.652,4.652,0,0,1,32.392,53.8m9.271,8.569A4.776,4.776,0,1,1,46.44,57.6a4.737,4.737,0,0,1-4.776,4.776m8.709-8.99a4.776,4.776,0,1,1,4.776-4.776,4.737,4.737,0,0,1-4.776,4.776" transform="translate(5.099 4.477)"/>
    </g>
    <g id="Group_6987" data-name="Group 6987" transform="translate(118.034 35.114)">
      <rect id="Rectangle_3982" data-name="Rectangle 3982" class="cls-2" width="1.264" height="18.402" transform="translate(0 0.421)"/>
      <path id="Path_124" data-name="Path 124" class="cls-2" d="M103.485,43.743h-1.264L91.264,27.448h-.14c.14,1.967.14,3.371.14,4.355v11.94H90V25.34h1.4l10.957,16.295h.14c-.14-1.545-.14-2.95-.14-4.355V25.2h1.264V43.743Z" transform="translate(-81.572 -24.919)"/>
      <path id="Path_125" data-name="Path 125" class="cls-2" d="M118.185,43.743h-1.264L105.964,27.448h-.14c.14,1.967.14,3.371.14,4.355v11.94H104.7V25.34h1.264l10.957,16.295h.14c-.14-1.545-.14-2.95-.14-4.355V25.2h1.264Z" transform="translate(-75.622 -24.919)"/>
      <path id="Path_126" data-name="Path 126" class="cls-2" d="M135.276,34.552c0,2.95-.7,5.2-2.248,6.883a8.479,8.479,0,0,1-12.081,0,10.781,10.781,0,0,1-2.248-7.024c0-2.95.7-5.2,2.248-6.883a8.479,8.479,0,0,1,12.081,0,10.3,10.3,0,0,1,2.248,7.024m-15.031,0a9.272,9.272,0,0,0,1.826,6.181,7.122,7.122,0,0,0,10.114,0,9.813,9.813,0,0,0,1.826-6.181c0-2.669-.562-4.636-1.826-6.04a7.122,7.122,0,0,0-10.114,0,8.876,8.876,0,0,0-1.826,6.04" transform="translate(-69.956 -25)"/>
      <path id="Path_127" data-name="Path 127" class="cls-2" d="M146.726,25.3h1.4l-6.883,18.4h-1.264L133.1,25.3h1.4l4.636,12.5c.7,1.826,1.124,3.371,1.4,4.214.14-.562.562-1.545.983-2.95Z" transform="translate(-64.127 -24.879)"/>
      <path id="Path_128" data-name="Path 128" class="cls-2" d="M162.876,34.552c0,2.95-.7,5.2-2.248,6.883a8.479,8.479,0,0,1-12.081,0,10.781,10.781,0,0,1-2.248-7.024c0-2.95.7-5.2,2.248-6.883A7.745,7.745,0,0,1,154.588,25a7.547,7.547,0,0,1,6.04,2.529,10.3,10.3,0,0,1,2.248,7.024m-15.031,0a9.272,9.272,0,0,0,1.826,6.181,7.122,7.122,0,0,0,10.114,0,9.813,9.813,0,0,0,1.826-6.181c0-2.669-.562-4.636-1.826-6.04a7.122,7.122,0,0,0-10.114,0,8.876,8.876,0,0,0-1.826,6.04" transform="translate(-58.785 -25)"/>
      <path id="Path_129" data-name="Path 129" class="cls-1" d="M176.607,34.29c0,3.09-.843,5.478-2.388,7.024-1.686,1.545-3.933,2.388-7.164,2.388H162.7V25.3h4.917c2.95,0,5.2.7,6.743,2.248a9.732,9.732,0,0,1,2.248,6.743m-1.4.14c0-2.669-.7-4.636-1.967-5.9a8.534,8.534,0,0,0-5.9-1.967h-3.371V42.719h3.09c5.338-.14,8.147-2.95,8.147-8.288" transform="translate(-52.147 -24.879)"/>
      <rect id="Rectangle_3983" data-name="Rectangle 3983" class="cls-1" width="1.264" height="18.402" transform="translate(130.781 0.421)"/>
      <path id="Path_130" data-name="Path 130" class="cls-1" d="M192.778,37.281h-7.445L182.8,43.743h-1.4L188.845,25.2h.843l7.3,18.543h-1.4Zm-7.024-1.264h6.6l-2.529-6.6a18.376,18.376,0,0,1-.7-2.107c-.281.843-.421,1.545-.7,2.248Z" transform="translate(-44.579 -24.919)"/>
      <path id="Path_131" data-name="Path 131" class="cls-1" d="M195.6,43.7V25.3h1.264V42.438h8.85V43.7Z" transform="translate(-38.831 -24.879)"/>
    </g>
  </g>
</svg>
