<svg xmlns="http://www.w3.org/2000/svg" viewBox="778 4076.787 304.132 90.158">
  <defs>
    <style>
      .cls-1 {
        fill: #eda804;
      }
    </style>
  </defs>
  <g id="Group_6985" data-name="Group 6985" transform="translate(777.989 4076.83)">
    <g id="Group_6984" data-name="Group 6984" transform="translate(118.118 35.384)">
      <g id="Group_6983" data-name="Group 6983" transform="translate(0 0.141)">
        <rect id="Rectangle_3981" data-name="Rectangle 3981" width="1.273" height="18.532" transform="translate(0 0.283)"/>
        <path id="Path_111" data-name="Path 111" d="M103.081,43.973h-1.273L90.773,27.563h-.141c.141,1.98.141,3.4.141,4.385V43.973H89.5V25.3h1.273l11.034,16.551h.141c-.141-1.556-.141-2.971-.141-4.385V25.3h1.273Z" transform="translate(-81.012 -25.017)"/>
        <path id="Path_112" data-name="Path 112" d="M117.781,44.015h-1.273L105.473,27.6h-.141c.141,1.98.141,3.4.141,4.385V44.015H104.2V25.341h1.273l11.034,16.41h.141c-.141-1.556-.141-2.971-.141-4.385V25.2h1.273Z" transform="translate(-74.917 -25.059)"/>
        <path id="Path_113" data-name="Path 113" d="M134.893,34.72c0,2.971-.707,5.234-2.263,6.932a8.539,8.539,0,0,1-12.166,0,10.857,10.857,0,0,1-2.263-7.073c0-2.971.707-5.234,2.263-6.932a7.8,7.8,0,0,1,6.083-2.546,7.6,7.6,0,0,1,6.083,2.546c1.556,1.7,2.263,4.1,2.263,7.073m-15.137,0a9.337,9.337,0,0,0,1.839,6.224,7.172,7.172,0,0,0,10.185,0,9.882,9.882,0,0,0,1.839-6.224c0-2.688-.566-4.668-1.839-6.083a7.172,7.172,0,0,0-10.185,0c-1.273,1.415-1.839,3.4-1.839,6.083" transform="translate(-69.112 -25.1)"/>
        <path id="Path_114" data-name="Path 114" d="M146.181,25.3H147.6l-6.932,18.532h-1.132L132.6,25.3h1.415l4.668,12.59c.707,1.839,1.132,3.4,1.415,4.244.141-.566.566-1.556.99-2.971Z" transform="translate(-63.141 -25.017)"/>
        <path id="Path_115" data-name="Path 115" d="M162.493,34.72c0,2.971-.707,5.234-2.263,6.932a8.539,8.539,0,0,1-12.166,0,10.857,10.857,0,0,1-2.263-7.073c0-2.971.707-5.234,2.263-6.932a8.539,8.539,0,0,1,12.166,0,10.857,10.857,0,0,1,2.263,7.073m-15.278,0a9.337,9.337,0,0,0,1.839,6.224,7.172,7.172,0,0,0,10.185,0,9.882,9.882,0,0,0,1.839-6.224c0-2.688-.566-4.668-1.839-6.083a7.172,7.172,0,0,0-10.185,0c-1.273,1.415-1.839,3.4-1.839,6.083" transform="translate(-57.668 -25.1)"/>
      </g>
      <path id="Path_116" data-name="Path 116" class="cls-1" d="M174.081,25.3H175.5l-6.932,18.673h-1.132L160.5,25.3h1.415l4.668,12.732c.707,1.98,1.132,3.4,1.415,4.385.141-.707.566-1.7.99-2.971Z" transform="translate(-51.573 -24.876)"/>
      <path id="Path_117" data-name="Path 117" class="cls-1" d="M190.393,34.62c0,2.971-.707,5.376-2.263,7.073a8.539,8.539,0,0,1-12.166,0A10.857,10.857,0,0,1,173.7,34.62c0-2.971.707-5.376,2.263-7.073A7.8,7.8,0,0,1,182.046,25a7.6,7.6,0,0,1,6.083,2.546A11.137,11.137,0,0,1,190.393,34.62Zm-15.42,0c0,2.688.566,4.81,1.839,6.224a6.318,6.318,0,0,0,5.093,2.122A6.13,6.13,0,0,0,187,40.844a9.882,9.882,0,0,0,1.839-6.224c0-2.688-.566-4.81-1.839-6.224a7.172,7.172,0,0,0-10.185,0A10.177,10.177,0,0,0,174.973,34.62Z" transform="translate(-46.099 -25)"/>
      <path id="Path_118" data-name="Path 118" class="cls-1" d="M189.4,43.873V25.2h1.273V43.873Z" transform="translate(-39.589 -24.917)"/>
      <path id="Path_119" data-name="Path 119" class="cls-1" d="M203.354,26.149a6.673,6.673,0,0,0-5.517,2.263c-1.415,1.556-1.98,3.537-1.98,6.224a9.337,9.337,0,0,0,1.839,6.224,7.021,7.021,0,0,0,5.376,2.263,14.925,14.925,0,0,0,4.385-.566V43.69a14.738,14.738,0,0,1-4.668.707,7.9,7.9,0,0,1-6.224-2.546c-1.556-1.7-2.263-4.1-2.263-7.073a11.1,11.1,0,0,1,1.132-4.951,7.992,7.992,0,0,1,3.112-3.4,8.793,8.793,0,0,1,4.668-1.132,11.481,11.481,0,0,1,4.951.99l-.566,1.132A6.548,6.548,0,0,0,203.354,26.149Z" transform="translate(-37.558 -24.876)"/>
      <path id="Path_120" data-name="Path 120" class="cls-1" d="M217.985,43.873H207.8V25.2h10.185v1.132h-8.912V33.4h8.346v1.132h-8.346V42.6h8.912Z" transform="translate(-31.96 -24.917)"/>
    </g>
    <path id="Path_121" data-name="Path 121" class="cls-1" d="M39.322,2.564,2.542,39.345A9.363,9.363,0,0,0,.42,42.882,7.429,7.429,0,0,0,2.542,50.8L39.322,87.584a9.363,9.363,0,0,0,3.537,2.122,7.429,7.429,0,0,0,7.922-2.122L87.562,50.8a9.363,9.363,0,0,0,2.122-3.537,7.185,7.185,0,0,0,.424-2.4A8,8,0,0,0,87.562,39.2L50.781,2.423A9.363,9.363,0,0,0,47.244.3,7.5,7.5,0,0,0,39.322,2.564Zm9.2,2.263L85.3,41.608a4.665,4.665,0,0,1,0,6.932L48.518,85.321a4.665,4.665,0,0,1-6.932,0L4.805,48.54a4.675,4.675,0,0,1-1.556-3.4,5.862,5.862,0,0,1,1.556-3.537L41.586,4.828A4.665,4.665,0,0,1,48.518,4.828ZM59.835,56.179a12.461,12.461,0,0,1-.849,4.668l-2.4,2.546a11.5,11.5,0,0,0-11.6-10.751,11.7,11.7,0,0,0-11.6,10.751l-2.263-2.4a13.775,13.775,0,0,1-.849-4.81,14.783,14.783,0,1,1,29.566,0ZM45.122,22.086a25.331,25.331,0,0,0-8.063,1.273l5.8-5.8a3.135,3.135,0,0,1,4.527,0l5.8,5.8A25.331,25.331,0,0,0,45.122,22.086ZM74.405,45.145c0,.141,0,.141-.141.283a3.266,3.266,0,0,1-.707.99l-1.7,1.7a31.956,31.956,0,0,0-1.273-7.5L73.7,43.73s.707.707.707,1.273ZM26.025,55.9l-3.112-3.112a18.029,18.029,0,0,1-.283-3.961,22.493,22.493,0,1,1,44.986,0,34.683,34.683,0,0,1-.283,3.82L64.22,55.755a19.1,19.1,0,0,0-38.2.141ZM19.659,40.618a33.258,33.258,0,0,0-1.273,7.5l-1.7-1.7s-.707-.707-.707-1.273V45c0-.141,0-.141.141-.283a3.266,3.266,0,0,1,.707-.99ZM45.122,56.6a7.639,7.639,0,1,1-7.639,7.639A7.607,7.607,0,0,1,45.122,56.6" transform="translate(0 0)"/>
  </g>
</svg>
