<svg xmlns="http://www.w3.org/2000/svg" viewBox="265.594 4913.363 841.813 122.675">
  <defs>
    <style>
      .cls-1 {
        fill: #00387b;
      }
    </style>
  </defs>
  <g id="Group_6992" data-name="Group 6992" transform="translate(265.594 4913.363)">
    <path id="Path_132" data-name="Path 132" class="cls-1" d="M421.235,94.156h63.859a1.329,1.329,0,0,0,1.335-1.335V71.535a1.329,1.329,0,0,0-1.335-1.335H421.235a1.329,1.329,0,0,0-1.335,1.335V92.821A1.329,1.329,0,0,0,421.235,94.156Zm50.583-14.611a2.67,2.67,0,1,1-2.67,2.67A2.659,2.659,0,0,1,471.818,79.545Zm-17.281,0a1.335,1.335,0,1,1,2.67,0v5.34a1.335,1.335,0,1,1-2.67,0Zm-8.01,0a1.335,1.335,0,1,1,2.67,0v5.34a1.335,1.335,0,1,1-2.67,0Zm-8.01,0a1.335,1.335,0,1,1,2.67,0v5.34a1.335,1.335,0,1,1-2.67,0Zm-7.936,0a1.335,1.335,0,1,1,2.67,0v5.34a1.335,1.335,0,1,1-2.67,0Z" transform="translate(-108.466 -18.134)"/>
    <path id="Path_133" data-name="Path 133" class="cls-1" d="M421.235,59.056h63.859a1.329,1.329,0,0,0,1.335-1.335V36.435a1.329,1.329,0,0,0-1.335-1.335H421.235a1.329,1.329,0,0,0-1.335,1.335V57.721A1.329,1.329,0,0,0,421.235,59.056Zm50.583-14.611a2.67,2.67,0,1,1-2.67,2.67A2.659,2.659,0,0,1,471.818,44.445Zm-17.281,0a1.335,1.335,0,1,1,2.67,0v5.34a1.335,1.335,0,1,1-2.67,0Zm-8.01,0a1.335,1.335,0,1,1,2.67,0v5.34a1.335,1.335,0,1,1-2.67,0Zm-8.01,0a1.335,1.335,0,1,1,2.67,0v5.34a1.335,1.335,0,1,1-2.67,0Zm-7.936,0a1.335,1.335,0,1,1,2.67,0v5.34a1.335,1.335,0,1,1-2.67,0Z" transform="translate(-108.466 -9.067)"/>
    <path id="Path_134" data-name="Path 134" class="cls-1" d="M421.235,23.956h63.859a1.329,1.329,0,0,0,1.335-1.335V1.335A1.329,1.329,0,0,0,485.094,0H421.235A1.329,1.329,0,0,0,419.9,1.335V22.621A1.329,1.329,0,0,0,421.235,23.956ZM471.818,9.345a2.67,2.67,0,1,1-2.67,2.67A2.659,2.659,0,0,1,471.818,9.345Zm-17.281,0a1.335,1.335,0,1,1,2.67,0v5.34a1.335,1.335,0,1,1-2.67,0Zm-8.01,0a1.335,1.335,0,1,1,2.67,0v5.34a1.335,1.335,0,1,1-2.67,0Zm-8.01,0a1.335,1.335,0,1,1,2.67,0v5.34a1.335,1.335,0,1,1-2.67,0Zm-7.936,0a1.335,1.335,0,1,1,2.67,0v5.34a1.335,1.335,0,1,1-2.67,0Z" transform="translate(-108.466)"/>
    <path id="Path_135" data-name="Path 135" class="cls-1" d="M465.525,110.813a1.113,1.113,0,1,0-2.225,0v2.967a1.113,1.113,0,1,0,2.225,0Z" transform="translate(-119.677 -28.337)"/>
    <path id="Path_136" data-name="Path 136" class="cls-1" d="M464.413,120.2a1.141,1.141,0,0,0-1.113,1.113v4.821a1.113,1.113,0,1,0,2.225,0v-4.821A1.092,1.092,0,0,0,464.413,120.2Z" transform="translate(-119.677 -31.049)"/>
    <path id="Path_137" data-name="Path 137" class="cls-1" d="M259.925,110.813a1.113,1.113,0,0,0-2.225,0v2.967a1.113,1.113,0,0,0,2.225,0Z" transform="translate(-66.568 -28.337)"/>
    <path id="Path_138" data-name="Path 138" class="cls-1" d="M258.813,120.2a1.141,1.141,0,0,0-1.113,1.113v4.821a1.113,1.113,0,0,0,2.225,0v-4.821A1.051,1.051,0,0,0,258.813,120.2Z" transform="translate(-66.568 -31.049)"/>
    <path id="Path_139" data-name="Path 139" class="cls-1" d="M876.525,110.813a1.113,1.113,0,0,0-2.225,0v2.967a1.113,1.113,0,0,0,2.225,0Z" transform="translate(-225.845 -28.337)"/>
    <path id="Path_140" data-name="Path 140" class="cls-1" d="M875.413,120.2a1.141,1.141,0,0,0-1.113,1.113v4.821a1.113,1.113,0,0,0,2.225,0v-4.821A1.092,1.092,0,0,0,875.413,120.2Z" transform="translate(-225.845 -31.049)"/>
    <path id="Path_141" data-name="Path 141" class="cls-1" d="M1091.513,115.092a1.141,1.141,0,0,0,1.113-1.113v-2.967a1.113,1.113,0,0,0-2.225,0v2.967A1.092,1.092,0,0,0,1091.513,115.092Z" transform="translate(-281.667 -28.389)"/>
    <path id="Path_142" data-name="Path 142" class="cls-1" d="M1090.4,126.333a1.113,1.113,0,0,0,2.225,0v-4.821a1.113,1.113,0,0,0-2.225,0Z" transform="translate(-281.667 -31.101)"/>
    <path id="Path_143" data-name="Path 143" class="cls-1" d="M818.579,136.808v-2.448a1.113,1.113,0,1,0-2.225,0v2.448a10,10,0,0,0-8.752,8.455H667.052a10,10,0,0,0-8.752-8.455v-2.6a1.113,1.113,0,0,0-2.225,0v2.6a10,10,0,0,0-8.752,8.455H514.636a10,10,0,0,0-8.752-8.455v-2.6a1.113,1.113,0,1,0-2.225,0v2.6a10,10,0,0,0-8.752,8.455H362.22a10,10,0,0,0-8.752-8.455v-2.6a1.113,1.113,0,1,0-2.225,0v2.6a10,10,0,0,0-8.752,8.455H209.8a10,10,0,0,0-8.752-8.455v-2.6a1.113,1.113,0,1,0-2.225,0v2.6a10,10,0,0,0-8.752,8.455H49.377a10.081,10.081,0,0,0-8.752-8.159v-2.744a1.113,1.113,0,1,0-2.225,0v2.744a10.006,10.006,0,1,0,11.051,11.051H190a9.969,9.969,0,0,0,19.729,0H342.343a10.043,10.043,0,0,0,9.864,8.529,9.929,9.929,0,0,0,9.864-8.529H494.685a10.043,10.043,0,0,0,9.864,8.529,9.929,9.929,0,0,0,9.864-8.529H647.027a10.043,10.043,0,0,0,9.864,8.529,9.929,9.929,0,0,0,9.864-8.529H807.305a9.992,9.992,0,0,0,19.877-1.483A9.472,9.472,0,0,0,818.579,136.808Z" transform="translate(-7.62 -34.382)"/>
    <path id="Path_144" data-name="Path 144" class="cls-1" d="M43.725,110.813a1.113,1.113,0,0,0-2.225,0v2.967a1.113,1.113,0,0,0,2.225,0Z" transform="translate(-10.72 -28.337)"/>
    <path id="Path_145" data-name="Path 145" class="cls-1" d="M42.613,120.2a1.141,1.141,0,0,0-1.113,1.113v4.9a1.113,1.113,0,0,0,2.225,0v-4.9A1.092,1.092,0,0,0,42.613,120.2Z" transform="translate(-10.72 -31.049)"/>
    <path id="Path_146" data-name="Path 146" class="cls-1" d="M671.025,110.813a1.113,1.113,0,1,0-2.225,0v2.967a1.113,1.113,0,1,0,2.225,0Z" transform="translate(-172.761 -28.337)"/>
    <path id="Path_147" data-name="Path 147" class="cls-1" d="M669.912,120.2a1.141,1.141,0,0,0-1.112,1.113v4.821a1.113,1.113,0,1,0,2.225,0v-4.821A1.092,1.092,0,0,0,669.912,120.2Z" transform="translate(-172.761 -31.049)"/>
    <path id="Path_148" data-name="Path 148" class="cls-1" d="M636.054,87h43.389a12.978,12.978,0,0,0,2.967-25.514v-.816a18.182,18.182,0,0,0-33.3-10.087A13.018,13.018,0,0,0,631.975,62.9a16.308,16.308,0,0,0,.371,3.263A10.75,10.75,0,0,0,636.054,87Zm-2.373-17.355,3.189-1.113-.816-3.263a8.158,8.158,0,0,1-.3-2.3,9.182,9.182,0,0,1,9.2-9.345,8.068,8.068,0,0,1,2.967.519l2.67.89,1.557-2.373a14.494,14.494,0,0,1,26.552,8.01v.668l-.148,2.967,2.893.742a9.281,9.281,0,0,1-2.077,18.245H636.054a7.091,7.091,0,0,1-7.046-7.046A6.954,6.954,0,0,1,633.681,69.646Z" transform="translate(-161.524 -10.978)"/>
    <path id="Path_149" data-name="Path 149" class="cls-1" d="M252.82,86.045c9.049,0,18.32-2.077,18.32-6.082V70.989a3.153,3.153,0,0,0-.816-2,3,3,0,0,0,.816-2V57.935a3.153,3.153,0,0,0-.816-2,3,3,0,0,0,.816-2V44.882c0-3.931-9.2-6.082-18.32-6.082s-18.32,2.077-18.32,6.082V53.93a3,3,0,0,0,.816,2,2.8,2.8,0,0,0-.816,2v9.049a3,3,0,0,0,.816,2,2.8,2.8,0,0,0-.816,2v9.049C234.574,83.969,243.771,86.045,252.82,86.045Zm0-45.243c10.68,0,16.317,2.67,16.317,4.079s-5.637,4.079-16.317,4.079S236.5,46.291,236.5,44.882,242.139,40.8,252.82,40.8Zm-16.243,6.972c3.189,2.077,9.79,3.189,16.317,3.189s13.128-1.038,16.317-3.189V53.93c0,1.409-5.637,4.079-16.317,4.079s-16.317-2.67-16.317-4.079Zm.445,9.345c3.338,1.928,9.642,2.893,15.8,2.893,6.23,0,12.46-.964,15.8-2.893.3.3.519.519.519.816,0,1.409-5.637,4.079-16.317,4.079S236.5,59.345,236.5,57.935A2.1,2.1,0,0,1,237.022,57.12Zm-.445,3.708c3.189,2.077,9.79,3.189,16.317,3.189s13.128-1.038,16.317-3.189v6.156c0,1.409-5.637,4.079-16.317,4.079s-16.317-2.67-16.317-4.079Zm.445,9.345c3.338,1.928,9.642,2.893,15.8,2.893,6.23,0,12.46-.964,15.8-2.893.3.3.519.519.519.816,0,1.409-5.637,4.079-16.317,4.079S236.5,72.4,236.5,70.989A1.682,1.682,0,0,1,237.022,70.173Zm-.445,3.708c3.189,2.077,9.79,3.189,16.317,3.189s13.128-1.038,16.317-3.189v6.156c0,1.409-5.637,4.079-16.317,4.079s-16.317-2.67-16.317-4.079Z" transform="translate(-60.575 -10.023)"/>
    <path id="Path_150" data-name="Path 150" class="cls-1" d="M841.233,76.429h49.248a3.64,3.64,0,0,0,3.634-3.634V42.534a3.64,3.64,0,0,0-3.634-3.634H841.233a3.64,3.64,0,0,0-3.634,3.634V72.8A3.593,3.593,0,0,0,841.233,76.429Zm-.964-32.486a1.646,1.646,0,0,1,1.632-1.632h47.913a1.646,1.646,0,0,1,1.632,1.632V71.9a1.646,1.646,0,0,1-1.632,1.632H841.9a1.646,1.646,0,0,1-1.632-1.632Z" transform="translate(-216.364 -10.048)"/>
    <path id="Path_151" data-name="Path 151" class="cls-1" d="M830.263,100.227h65.862a3.263,3.263,0,1,0,0-6.527H830.263A3.292,3.292,0,0,0,827,96.963,3.244,3.244,0,0,0,830.263,100.227Zm36.862-4.6h22.621a1.335,1.335,0,0,1,0,2.67H867.125a1.335,1.335,0,0,1,0-2.67Z" transform="translate(-213.626 -24.204)"/>
    <rect id="Rectangle_3984" data-name="Rectangle 3984" class="cls-1" width="44.649" height="24.624" transform="translate(627.169 35.527)"/>
    <path id="Path_152" data-name="Path 152" class="cls-1" d="M1080.892,16.5a31.892,31.892,0,1,0,31.892,31.892A31.891,31.891,0,0,0,1080.892,16.5Zm-11.274,40.644a1.228,1.228,0,0,1,.371.89,1.368,1.368,0,0,1-.371.89c-.148.074-.223.148-.371.223a1.372,1.372,0,0,1-.89,0,1.617,1.617,0,0,1-.371-.223l-9.642-9.642a1.182,1.182,0,0,1-.3-.89,1.013,1.013,0,0,1,.3-.816l9.642-9.642a1.188,1.188,0,0,1,2,.816,1.062,1.062,0,0,1-.371.816l-8.826,8.826Zm18.245-17.726-12.015,19.21a2.522,2.522,0,0,1-.445.445,1.746,1.746,0,0,1-.593.148.446.446,0,0,1-.3-.074,1.255,1.255,0,0,1-.371-.148.938.938,0,0,1-.519-.742,1.214,1.214,0,0,1,.148-.89l12.015-19.284a1.254,1.254,0,0,1,.742-.519,1.213,1.213,0,0,1,.89.148,1.254,1.254,0,0,1,.519.742A1.089,1.089,0,0,1,1087.864,39.418Zm15.5,9.864-9.642,9.642c-.148.074-.223.148-.371.223a1.372,1.372,0,0,1-.89,0,1.617,1.617,0,0,1-.371-.223,1.228,1.228,0,0,1-.371-.89,1.368,1.368,0,0,1,.371-.89l8.826-8.752-8.9-8.752a1.19,1.19,0,0,1-.371-.816,1.062,1.062,0,0,1,.371-.816,1.083,1.083,0,0,1,1.632,0l9.642,9.642a1.115,1.115,0,0,1,.3.816A1.148,1.148,0,0,1,1103.365,49.282Z" transform="translate(-270.972 -4.262)"/>
    <path id="Path_153" data-name="Path 153" class="cls-1" d="M24.995,64.587c0,.074.148.148.223.148s.074-.074.148-.074A77.706,77.706,0,0,0,29.3,56.8c1.113.593,2.67,1.409,4.376,2.522,1.854-1.113,3.338-1.854,3.783-2.077.148-.074.223-.148.223-.3V53.462a7.962,7.962,0,0,1-1.038-2.893c-.371,0-.964-.593-1.483-2.6-.742-2.6-.074-3.115.593-3.115-.371-1.483-1.261-6.749,2.67-9.2a2.125,2.125,0,0,1-.742-1.632,29.222,29.222,0,0,0,6.6.074A4.494,4.494,0,0,1,49.174,37s4.376,0,2.67,7.862c.668,0,1.409.445.668,3.115-.593,2-1.113,2.6-1.483,2.6a7.962,7.962,0,0,1-1.038,2.893v3.486c0,.148.074.223.223.3a58.339,58.339,0,0,1,10.013,6.3A31.974,31.974,0,1,0,0,48.418,32.375,32.375,0,0,0,3.412,62.807a60.026,60.026,0,0,1,9.419-6.082,64.777,64.777,0,0,0,3.931,7.862c.074.074.148.148.3.074.074,0,.074-.074.074-.148.371-1.038,1.483-3.783,3.041-3.634a.16.16,0,0,0,.148-.148c0-.074,0-.074-.074-.148a75.354,75.354,0,0,1-5.859-5.192V51.682a7.865,7.865,0,0,1-1.113-3.115c-.445,0-1.038-.593-1.632-2.818-.742-2.744-.074-3.338.593-3.338a2.194,2.194,0,0,1-.148-.742,8.79,8.79,0,0,1,0-3.931,8.383,8.383,0,0,1,2.3-4.005,10.188,10.188,0,0,1,2.151-1.78,7.782,7.782,0,0,1,2.077-1.038,8.22,8.22,0,0,1,1.854-.371,7.855,7.855,0,0,1,4.673.964,5.822,5.822,0,0,1,2.3,2.151s3.783.3,2.522,7.936c-.074.223-.074.445-.148.742.742,0,1.483.593.668,3.338-.593,2.151-1.187,2.818-1.632,2.818a9.213,9.213,0,0,1-1.113,3.115v3.708a62.562,62.562,0,0,1-5.859,5.192.139.139,0,0,0,0,.223c0,.074.074.074.148.074C23.511,60.8,24.624,63.474,24.995,64.587Z" transform="translate(0 -4.288)"/>
  </g>
</svg>
