<svg xmlns="http://www.w3.org/2000/svg" viewBox="558.221 5541.485 22.779 18.515">
  <defs>
    <style>
      .cls-1 {
        fill: #eda804;
      }
    </style>
  </defs>
  <path id="Path_67" data-name="Path 67" class="cls-1" d="M22.679,2.19A9.143,9.143,0,0,1,20,2.923,4.67,4.67,0,0,0,22.055.341a9.444,9.444,0,0,1-2.973,1.133A4.673,4.673,0,0,0,11,4.672a4.5,4.5,0,0,0,.125,1.066A13.3,13.3,0,0,1,1.491.858,4.674,4.674,0,0,0,2.94,7.1,4.669,4.669,0,0,1,.824,6.513v.058a4.673,4.673,0,0,0,3.748,4.581,4.635,4.635,0,0,1-1.233.167,5.2,5.2,0,0,1-.883-.083,4.684,4.684,0,0,0,4.364,3.248,9.4,9.4,0,0,1-5.805,2A9.913,9.913,0,0,1-.1,16.416a13.228,13.228,0,0,0,7.163,2.1A13.2,13.2,0,0,0,20.355,5.222c0-.2-.008-.408-.017-.608A9.515,9.515,0,0,0,22.679,2.19Z" transform="translate(558.321 5541.485)"/>
</svg>
